<svg width="18" height="18" viewBox="0 0 18 18" fill="none" xmlns="http://www.w3.org/2000/svg">
<path d="M1.8136 17.0526C1.31486 17.0526 0.887758 16.8673 0.532292 16.4965C0.177431 16.1252 0 15.6789 0 15.1579V1.89474C0 1.37368 0.177431 0.927474 0.532292 0.556105C0.887758 0.185368 1.31486 0 1.8136 0H14.5088C15.0076 0 15.4347 0.185368 15.7901 0.556105C16.145 0.927474 16.3224 1.37368 16.3224 1.89474V7.27105C15.8992 7.05 15.4573 6.888 14.9967 6.78505C14.5354 6.68274 14.0705 6.63158 13.602 6.63158C13.1637 6.63158 12.7481 6.67484 12.3552 6.76137C11.9622 6.84853 11.5768 6.97105 11.199 7.12895C11.2443 6.97105 11.2785 6.81316 11.3015 6.65526C11.3238 6.49737 11.335 6.33158 11.335 6.15789C11.335 5.24211 11.0252 4.46053 10.4055 3.81316C9.78589 3.16579 9.03778 2.84211 8.16121 2.84211C7.28463 2.84211 6.53652 3.16579 5.91688 3.81316C5.29723 4.46053 4.98741 5.24211 4.98741 6.15789C4.98741 7.07368 5.29723 7.85526 5.91688 8.50263C6.53652 9.15 7.28463 9.47368 8.16121 9.47368H8.38791C8.19144 9.75789 8.02156 10.0617 7.87829 10.3851C7.73441 10.7091 7.60957 11.0447 7.50378 11.3921C6.38539 11.4711 5.3465 11.7474 4.3871 12.2211C3.4271 12.6947 2.56927 13.3105 1.8136 14.0684V15.1579H7.52645C7.63224 15.5053 7.75315 15.8368 7.88917 16.1526C8.02519 16.4684 8.19144 16.7684 8.38791 17.0526H1.8136ZM12.6952 18L12.4232 16.5789C12.2418 16.5 12.0719 16.4173 11.9136 16.3307C11.7546 16.2436 11.5919 16.1368 11.4257 16.0105L10.1108 16.4368L9.20403 14.8263L10.2469 13.8789C10.2166 13.6579 10.2015 13.4526 10.2015 13.2632C10.2015 13.0737 10.2166 12.8684 10.2469 12.6474L9.20403 11.7L10.1108 10.0895L11.4257 10.5158C11.5919 10.3895 11.7546 10.2827 11.9136 10.1956C12.0719 10.1091 12.2418 10.0263 12.4232 9.94737L12.6952 8.52632H14.5088L14.7809 9.94737C14.9622 10.0263 15.1324 10.1132 15.2914 10.2079C15.4498 10.3026 15.6121 10.4211 15.7783 10.5632L17.0932 10.0895L18 11.7474L16.9572 12.6947C16.9874 12.8842 17.0025 13.0816 17.0025 13.2868C17.0025 13.4921 16.9874 13.6895 16.9572 13.8789L18 14.8263L17.0932 16.4368L15.7783 16.0105C15.6121 16.1368 15.4498 16.2436 15.2914 16.3307C15.1324 16.4173 14.9622 16.5 14.7809 16.5789L14.5088 18H12.6952ZM13.602 15.1579C14.1008 15.1579 14.5279 14.9725 14.8833 14.6018C15.2382 14.2304 15.4156 13.7842 15.4156 13.2632C15.4156 12.7421 15.2382 12.2959 14.8833 11.9245C14.5279 11.5538 14.1008 11.3684 13.602 11.3684C13.1033 11.3684 12.6762 11.5538 12.3207 11.9245C11.9658 12.2959 11.7884 12.7421 11.7884 13.2632C11.7884 13.7842 11.9658 14.2304 12.3207 14.6018C12.6762 14.9725 13.1033 15.1579 13.602 15.1579Z" fill="#CCCCCC"/>
</svg>
