<svg width="30" height="42" viewBox="0 0 30 42" fill="none" xmlns="http://www.w3.org/2000/svg">
<path d="M4.59684 22.5592C4.6455 23.137 5.49893 24.217 7.25798 26.2225C14.9522 34.9948 15.4971 34.902 16.1397 34.897L16.4508 34.8279C17.0379 34.4991 17.2671 34.1153 19.8376 30.0587C20.5545 28.9271 22.0636 26.5963 23.1898 24.8748C25.9888 20.5965 25.9607 20.382 22.6715 20.6239C20.7253 20.7671 20.5809 20.7598 20.1832 20.4166C19.8217 20.1046 19.7344 19.8038 19.5266 18.4121C18.9586 14.6096 19.563 10.4535 21.22 6.76589C21.9115 5.22648 22.1645 4.75006 23.2935 3.1026C23.8345 2.31299 23.9605 2.01974 23.9156 1.40925C23.8758 0.85676 23.7549 0.658052 23.5009 0.545261C22.1835 -0.0397713 19.4481 1.89866 16.1397 5.76378C12.8075 9.65644 10.7389 14.0623 9.81537 19.3111C9.42023 21.5564 9.40696 21.5812 6.91238 21.7648C5.33072 21.8812 4.54851 21.9815 4.59684 22.5592Z" fill="#CCCCCC" fill-opacity="0.66667"/>
<path d="M0.421875 35.9373C0.421875 39.0006 2.88803 41.4668 5.95138 41.4668H23.8183C26.8816 41.4668 29.3478 39.0006 29.3478 35.9373V11.2271C29.3478 8.16373 26.8816 5.69757 23.8183 5.69757H22.6433C22.2872 6.38323 21.9996 7.091 21.711 7.80541C24.6067 7.98822 26.8949 10.3569 26.8949 13.3004V31.9282C26.8949 34.9915 24.4288 37.4577 21.3654 37.4577H8.40537C5.34202 37.4577 2.87587 34.9915 2.87587 31.9282V13.3004C2.87587 10.2371 5.34202 7.77091 8.40537 7.77091H13.4857C13.9856 7.0535 14.5451 6.3725 15.11 5.69734H5.95182C2.88848 5.69734 0.422317 8.1635 0.422317 11.2268L0.421875 35.9373Z" fill="#CCCCCC" fill-opacity="0.66667"/>
</svg>
