<svg width="18" height="18" viewBox="0 0 18 18" fill="none" xmlns="http://www.w3.org/2000/svg">
<path d="M2 18C1.45 18 0.979 17.8043 0.587 17.413C0.195667 17.021 0 16.55 0 16V2C0 1.45 0.195667 0.979 0.587 0.587C0.979 0.195667 1.45 0 2 0H16C16.55 0 17.021 0.195667 17.413 0.587C17.8043 0.979 18 1.45 18 2V16C18 16.55 17.8043 17.021 17.413 17.413C17.021 17.8043 16.55 18 16 18H2ZM8.4 14H9.6C9.71667 14 9.81667 13.9623 9.9 13.887C9.98333 13.8123 10.0417 13.7167 10.075 13.6L10.3 12.5C10.5 12.4167 10.6877 12.3293 10.863 12.238C11.0377 12.146 11.2167 12.0333 11.4 11.9L12.475 12.225C12.5917 12.2583 12.7 12.2543 12.8 12.213C12.9 12.171 12.9833 12.1 13.05 12L13.65 11C13.7167 10.9 13.7373 10.7917 13.712 10.675C13.6873 10.5583 13.625 10.4583 13.525 10.375L12.7 9.65C12.7333 9.41667 12.75 9.2 12.75 9C12.75 8.8 12.7333 8.58333 12.7 8.35L13.525 7.625C13.625 7.54167 13.6873 7.44167 13.712 7.325C13.7373 7.20833 13.7167 7.1 13.65 7L13.05 6C12.9833 5.9 12.9 5.829 12.8 5.787C12.7 5.74567 12.5917 5.74167 12.475 5.775L11.4 6.1C11.2167 5.96667 11.0377 5.854 10.863 5.762C10.6877 5.67067 10.5 5.58333 10.3 5.5L10.075 4.4C10.0417 4.28333 9.98333 4.18733 9.9 4.112C9.81667 4.03733 9.71667 4 9.6 4H8.4C8.28333 4 8.18333 4.03733 8.1 4.112C8.01667 4.18733 7.95833 4.28333 7.925 4.4L7.7 5.5C7.5 5.58333 7.31233 5.67067 7.137 5.762C6.96233 5.854 6.78333 5.96667 6.6 6.1L5.525 5.775C5.40833 5.74167 5.3 5.74567 5.2 5.787C5.1 5.829 5.01667 5.9 4.95 6L4.35 7C4.28333 7.1 4.26233 7.20833 4.287 7.325C4.31233 7.44167 4.375 7.54167 4.475 7.625L5.3 8.35C5.26667 8.58333 5.25 8.8 5.25 9C5.25 9.2 5.26667 9.41667 5.3 9.65L4.475 10.375C4.375 10.4583 4.31233 10.5583 4.287 10.675C4.26233 10.7917 4.28333 10.9 4.35 11L4.95 12C5.01667 12.1 5.1 12.171 5.2 12.213C5.3 12.2543 5.40833 12.2583 5.525 12.225L6.6 11.9C6.78333 12.0333 6.96233 12.146 7.137 12.238C7.31233 12.3293 7.5 12.4167 7.7 12.5L7.925 13.6C7.95833 13.7167 8.01667 13.8123 8.1 13.887C8.18333 13.9623 8.28333 14 8.4 14ZM9 11C8.45 11 7.97933 10.804 7.588 10.412C7.196 10.0207 7 9.55 7 9C7 8.45 7.196 7.979 7.588 7.587C7.97933 7.19567 8.45 7 9 7C9.55 7 10.021 7.19567 10.413 7.587C10.8043 7.979 11 8.45 11 9C11 9.55 10.8043 10.0207 10.413 10.412C10.021 10.804 9.55 11 9 11Z" fill="#CCCCCC"/>
</svg>
