<svg width="18" height="18" viewBox="0 0 18 18" fill="none" xmlns="http://www.w3.org/2000/svg">
<path d="M7.68766 1.5C8.86363 1.49987 10.0153 1.83486 11.0077 2.46572C12.0001 3.09659 12.7922 3.9972 13.2912 5.06206C13.7902 6.12691 13.9754 7.31192 13.8251 8.47824C13.6748 9.64457 13.1953 10.7439 12.4427 11.6475L16.7102 15.915C16.7842 15.9838 16.8383 16.0712 16.8668 16.1681C16.8954 16.2651 16.8972 16.3679 16.8722 16.4658C16.8471 16.5637 16.7962 16.653 16.7246 16.7244C16.6531 16.7957 16.5636 16.8465 16.4657 16.8713C16.3679 16.8963 16.2651 16.8946 16.1683 16.8662C16.0714 16.8378 15.984 16.7839 15.9152 16.71L11.6477 12.4425C10.884 13.0783 9.97851 13.5209 9.00768 13.7327C8.03685 13.9446 7.02927 13.9195 6.07018 13.6596C5.11109 13.3997 4.2287 12.9127 3.49765 12.2397C2.7666 11.5666 2.2084 10.7274 1.87025 9.79307C1.53211 8.85869 1.42398 7.85662 1.555 6.87162C1.68603 5.88662 2.05236 4.94766 2.623 4.13418C3.19364 3.32069 3.95182 2.6566 4.83338 2.19809C5.71495 1.73958 6.69398 1.50013 7.68766 1.5ZM2.62516 7.6875C2.62516 8.35232 2.75611 9.01062 3.01052 9.62484C3.26494 10.239 3.63784 10.7971 4.10793 11.2672C4.57803 11.7373 5.13612 12.1102 5.75033 12.3646C6.36454 12.6191 7.02284 12.75 7.68766 12.75C8.35248 12.75 9.01079 12.6191 9.625 12.3646C10.2392 12.1102 10.7973 11.7373 11.2674 11.2672C11.7375 10.7971 12.1104 10.239 12.3648 9.62484C12.6192 9.01062 12.7502 8.35232 12.7502 7.6875C12.7502 6.34484 12.2168 5.05717 11.2674 4.10777C10.318 3.15837 9.03032 2.625 7.68766 2.625C6.345 2.625 5.05734 3.15837 4.10793 4.10777C3.15853 5.05717 2.62516 6.34484 2.62516 7.6875Z" fill="#303030"/>
</svg>
