<svg width="122" height="123" viewBox="0 0 122 123" fill="none" xmlns="http://www.w3.org/2000/svg">
<path d="M72.7934 19.22H114.46C116.37 19.22 118.084 20.0018 119.325 21.2522L119.326 21.2536C120.578 22.5052 121.36 24.2401 121.36 26.12V115.48C121.36 117.39 120.578 119.104 119.328 120.345L119.326 120.346C118.075 121.598 116.34 122.38 114.46 122.38H24.48C22.5701 122.38 20.856 121.598 19.6149 120.348L19.6136 120.346C18.3619 119.095 17.58 117.36 17.58 115.48V72.1951C19.7424 73.0283 21.9867 73.6945 24.3 74.1613V94.03V94.53H24.8H24.83H25.0306L25.1756 94.3913C34.8447 85.1423 42.0531 79.4177 50.4844 72.7218C53.1704 70.5887 55.9805 68.357 59.0338 65.8814L85.7281 97.4628L86.4294 98.2924L86.6035 97.2202L90.7027 71.9852C90.7028 71.9845 90.7029 71.9839 90.703 71.9832C90.9385 70.6269 92.207 69.7115 93.5448 69.9427L93.5448 69.9429L93.5582 69.9448C94.0547 70.0169 94.5203 70.2669 94.8987 70.6161L113.708 90.3747L114.57 91.2804V90.03V27.91C114.57 27.3782 114.357 26.8923 113.97 26.5531C113.648 26.2374 113.163 25.98 112.64 25.98H74.4771C74.0978 23.657 73.5323 21.4014 72.7934 19.22ZM15.0216 33.0113L14.1376 33.87H15.37H25.91V49.13V49.63H26.41H38.86H39.36V49.13V33.87H50.22H51.4519L50.5685 33.0114L33.1485 16.0814L32.8001 15.7429L32.4516 16.0813L15.0216 33.0113ZM101.497 53.6155L101.496 53.6164C99.627 55.4859 97.083 56.61 94.27 56.61C91.4576 56.61 88.8733 55.4562 87.0336 53.6164C85.1641 51.747 84.04 49.203 84.04 46.39C84.04 43.5785 85.1931 41.0039 87.0339 39.1532C88.9138 37.2835 91.4579 36.16 94.27 36.16C97.0827 36.16 99.6663 37.3139 101.496 39.1526L101.496 39.1536C103.366 41.0228 104.49 43.5668 104.49 46.39C104.49 49.2027 103.336 51.7863 101.497 53.6155ZM32.79 0.5C50.6239 0.5 65.08 14.9561 65.08 32.79C65.08 50.6239 50.6239 65.08 32.79 65.08C14.9561 65.08 0.5 50.6239 0.5 32.79C0.5 14.9561 14.9561 0.5 32.79 0.5Z" fill="#CCCCCC" stroke="#CCCCCC"/>
</svg>
