<svg xmlns="http://www.w3.org/2000/svg" width="36" height="36" viewBox="0 0 36 36" fill="none"><path d="M21 9H24V12H31.5C31.8978 12 32.2794 12.158 32.5607 12.4393C32.842 12.7206 33 13.1022 33 13.5V24.75L24 19.5L24.054 31.593L27.3885 28.368L30.0615 33H13.5C13.1022 33 12.7206 32.842 12.4393 32.5607C12.158 32.2794 12 31.8978 12 31.5V24H9V21H12V13.5C12 13.1022 12.158 12.7206 12.4393 12.4393C12.7206 12.158 13.1022 12 13.5 12H21V9ZM33 26.007V31.5C33.0001 31.6563 32.9758 31.8117 32.928 31.9605L29.988 26.8695L33 26.007ZM6 21V24H3V21H6ZM6 15V18H3V15H6ZM6 9V12H3V9H6ZM6 3V6H3V3H6ZM12 3V6H9V3H12ZM18 3V6H15V3H18ZM24 3V6H21V3H24Z" fill="white"></path></svg>