<svg xmlns="http://www.w3.org/2000/svg" width="36" height="36" viewBox="0 0 36 36" fill="none"><path d="M18.0001 25.5C23.4931 25.5 28.2976 27.8625 30.9106 31.3875L28.1476 32.694C26.0206 30.174 22.2706 28.5 18.0001 28.5C13.7296 28.5 9.97956 30.174 7.85256 32.694L5.09106 31.386C7.70406 27.861 12.5071 25.5 18.0001 25.5ZM18.0001 3C19.9892 3 21.8968 3.79018 23.3034 5.1967C24.7099 6.60322 25.5001 8.51088 25.5001 10.5V15C25.5 16.9327 24.7538 18.7907 23.4171 20.1867C22.0804 21.5826 20.2564 22.4086 18.3256 22.4925L18.0001 22.5C16.0109 22.5 14.1033 21.7098 12.6968 20.3033C11.2902 18.8968 10.5001 16.9891 10.5001 15V10.5C10.5002 8.56731 11.2464 6.70926 12.5831 5.31333C13.9197 3.91741 15.7437 3.09138 17.6746 3.0075L18.0001 3ZM18.0001 6C16.8522 5.99994 15.7478 6.43849 14.9127 7.22593C14.0776 8.01336 13.5749 9.09016 13.5076 10.236L13.5001 10.5V15C13.4989 16.1714 13.9546 17.297 14.7702 18.1377C15.5858 18.9785 16.6972 19.468 17.868 19.5024C19.0389 19.5368 20.177 19.1132 21.0405 18.3218C21.9041 17.5304 22.425 16.4334 22.4926 15.264L22.5001 15V10.5C22.5001 9.30653 22.026 8.16193 21.182 7.31802C20.3381 6.47411 19.1935 6 18.0001 6Z" fill="white"></path></svg>